<svg xmlns="http://www.w3.org/2000/svg" width="32px" height="32px"  viewBox="0 0 24 24"><g>
                <path d="M11.999,20.937c-0.393,0-0.744-0.203-0.94-0.542L9.61,17.896c-0.019-0.033-0.056-0.05-0.098-0.04
                    l-2.785,0.747c-0.379,0.102-0.772-0.004-1.05-0.281c-0.278-0.278-0.383-0.67-0.281-1.049l0.748-2.796
                    c0.01-0.037-0.007-0.078-0.041-0.097L3.607,12.94c-0.34-0.196-0.543-0.547-0.544-0.94c0-0.393,0.202-0.745,0.542-0.941L6.104,9.61
                    c0.034-0.02,0.05-0.06,0.04-0.098L5.397,6.728c-0.102-0.379,0.003-0.772,0.281-1.05s0.67-0.383,1.049-0.281l2.796,0.748
                    c0.035,0.009,0.077-0.006,0.097-0.041l1.439-2.497c0.196-0.34,0.547-0.543,0.94-0.544c0,0,0.001,0,0.001,0
                    c0.393,0,0.744,0.203,0.94,0.542l1.448,2.499c0.02,0.033,0.058,0.051,0.098,0.04l2.785-0.747c0.379-0.101,0.772,0.003,1.05,0.281
                    c0.278,0.278,0.383,0.67,0.281,1.049l-0.748,2.796c-0.01,0.038,0.007,0.078,0.041,0.097l2.497,1.439
                    c0.34,0.196,0.544,0.548,0.544,0.94c0,0.393-0.202,0.745-0.542,0.941l-2.499,1.448c-0.034,0.02-0.05,0.06-0.04,0.098l0.747,2.785
                    c0.102,0.379-0.003,0.771-0.281,1.049s-0.669,0.382-1.049,0.281l-2.796-0.748c-0.036-0.01-0.078,0.007-0.097,0.041l-1.439,2.496
                    C12.744,20.733,12.393,20.936,11.999,20.937C12,20.937,11.999,20.937,11.999,20.937z M9.534,16.853
                    c0.381,0,0.744,0.201,0.941,0.541l1.448,2.5c0.017,0.029,0.042,0.043,0.075,0.043l0,0c0.033,0,0.058-0.014,0.074-0.043l1.439-2.497
                    c0.245-0.425,0.745-0.636,1.222-0.507l2.796,0.748c0.031,0.007,0.06,0,0.083-0.022c0.023-0.023,0.031-0.052,0.022-0.083
                    l-0.747-2.786c-0.126-0.474,0.081-0.976,0.505-1.221l2.499-1.448c0.029-0.017,0.043-0.042,0.043-0.075
                    c0-0.033-0.015-0.059-0.043-0.075l-2.496-1.439c-0.425-0.245-0.634-0.747-0.507-1.222l0.748-2.796
                    c0.008-0.032,0.001-0.06-0.022-0.083s-0.052-0.029-0.084-0.022L14.746,7.11c-0.473,0.127-0.976-0.081-1.221-0.505l-1.448-2.499
                    c-0.017-0.029-0.042-0.043-0.075-0.043l0,0c-0.033,0-0.058,0.014-0.074,0.043l-1.439,2.497C10.242,7.029,9.739,7.237,9.265,7.11
                    L6.469,6.363C6.437,6.355,6.41,6.362,6.386,6.385C6.362,6.409,6.355,6.437,6.363,6.469L7.11,9.254
                    c0.126,0.474-0.081,0.976-0.505,1.221l-2.499,1.448c-0.029,0.017-0.043,0.042-0.043,0.075s0.014,0.058,0.043,0.074l2.497,1.439
                    c0.425,0.246,0.634,0.748,0.507,1.222l-0.748,2.796c-0.008,0.032-0.001,0.06,0.022,0.083c0.024,0.023,0.053,0.029,0.084,0.022
                    l2.785-0.747C9.347,16.865,9.441,16.853,9.534,16.853z"/>
                <path d="M12,15.875c-2.136,0-3.875-1.738-3.875-3.875S9.864,8.125,12,8.125S15.875,9.864,15.875,12
                    S14.136,15.875,12,15.875z M12,9.125c-1.585,0-2.875,1.29-2.875,2.875s1.29,2.875,2.875,2.875s2.875-1.29,2.875-2.875
                    S13.585,9.125,12,9.125z"/>
            </g></svg>